# xmcd
# Track frame offsets:
# 150
# 35521
# 61866
# 89702
# 116739
# 154936
# 164998
#
# Disc length: 2609 seconds
# Revision: 3
# Processed by: cddbd v1.4PL0 Copyright (c) Steve Scherf et al.
# Submitted via: VisiTrax 2.9.3.171 - For more info visit www.synapsa.com
#
DISCID=620a2f07
DTITLE=Songs: Ohia - Didn't It Rain
DYEAR=2002
DGENRE=Alt Country
TTITLE0=Didn't It Rain
TTITLE1=Steve Albini's Blues
TTITLE2=Ring The Bell
TTITLE3=Cross The Road, Molina
TTITLE4=Blue Factory Flame
TTITLE5=Two Blue Lights
TTITLE6=Blue Chicago Moon
EXTD=
EXTT0=
EXTT1=
EXTT2=
EXTT3=
EXTT4=
EXTT5=
EXTT6=
PLAYORDER=
